<svg version="1.1" xmlns="http://www.w3.org/2000/svg" style="display: block;" viewBox="0 0 2048 1164" width="672" height="382" preserveAspectRatio="none">
<defs>
	<linearGradient id="Gradient1" gradientUnits="userSpaceOnUse" x1="1813.43" y1="944.219" x2="1804.79" y2="961.362">
		<stop class="stop0" offset="0" stop-opacity="0" stop-color="rgb(255,253,255)"/>
		<stop class="stop1" offset="1" stop-opacity="0.0588235" stop-color="rgb(240,255,254)"/>
	</linearGradient>
	<linearGradient id="Gradient2" gradientUnits="userSpaceOnUse" x1="1703.21" y1="969.221" x2="1715.69" y2="968.384">
		<stop class="stop0" offset="0" stop-opacity="0" stop-color="rgb(252,253,255)"/>
		<stop class="stop1" offset="1" stop-opacity="0.0313725" stop-color="rgb(255,255,253)"/>
	</linearGradient>
</defs>
<path transform="translate(0,0)" fill="rgb(236,34,35)" d="M 1259.11 377.613 C 1259.25 377.71 1259.38 377.806 1259.51 377.903 C 1295.05 451.588 1323.44 532.139 1338.99 612.212 C 1344.13 638.624 1346.85 648.316 1348.66 666.459 C 1329.48 667.96 1292.11 666.378 1271.72 666.065 C 1232.89 665.766 1194.07 665.037 1155.25 663.877 C 1136.35 663.205 1117.23 661.657 1098.23 660.822 C 1038.72 658.209 979.118 656.27 919.63 653.36 C 845.471 649.733 770.046 643.452 695.997 640.363 C 597.104 635.937 498.064 635.935 399.171 640.355 C 371.055 641.572 342.961 643.235 314.898 645.343 C 276.272 647.916 249.028 648.258 211.545 658.885 C 206.823 659.717 205.161 660.415 201.295 657.294 C 195.258 645.642 212.262 624.122 220.885 616.986 C 226.721 620.617 232.775 626.818 237.869 631.62 C 252.514 631.047 267.25 629.361 281.94 628.469 C 318.273 626.261 354.621 624.308 390.982 622.611 C 464.973 619.361 539.044 618.302 613.097 619.438 C 714.215 620.863 817.375 628.64 918.494 633.361 C 1051.9 640.525 1185.46 644.306 1319.05 644.7 C 1312.69 594.132 1292.54 529.531 1274.86 481.449 C 1255.6 429.066 1244.21 438.64 1259.11 377.613 z"/>
<path transform="translate(0,0)" fill="rgb(236,34,35)" d="M 349.988 350.172 C 373.571 350.252 401.028 349.368 424.207 350.228 C 435.039 384.248 444.865 423.323 456.6 456.201 C 458.839 445.895 464.32 430.048 467.606 419.409 C 474.916 396.347 481.842 373.164 488.383 349.872 C 512.576 350.767 541.146 350.21 565.52 350.172 L 565.274 370.684 C 558.555 372.042 550.246 372.713 545.881 377.864 C 542.318 386.492 542.959 487.078 545.829 497.923 C 552.705 500.283 556.904 501.779 564.086 500.643 C 565.796 503.363 565.65 506.207 565.91 509.503 C 565.782 514.329 565.61 519.152 565.395 523.974 C 555.565 525.314 543.255 524.457 533.044 524.406 C 515.012 524.315 496.379 524.647 478.399 523.861 C 478.138 515.748 478.49 510.622 479.176 502.504 C 484.955 501.724 492.904 501.353 497.254 496.898 C 503.332 490.674 501.154 411.728 500.511 398.385 C 496.466 408.34 492.495 423.437 489.301 434.29 C 483.584 454.112 477.651 473.871 471.504 493.563 C 469.22 500.894 464.984 516.246 461.481 522.418 C 457.248 525.959 439.978 524.357 433.513 524.139 C 431.504 517.849 429.583 511.404 427.465 505.164 C 415.012 468.468 406.581 430.808 394.035 394.151 C 393.954 416.516 394.888 439.083 394.667 461.491 C 394.557 472.712 394.328 485.813 396.685 496.677 C 415.553 505.858 416.562 496.39 415.858 523.876 C 395.782 524.334 369.75 523.404 350.78 524.591 C 350.298 516.589 350.305 510.589 350.509 502.561 C 355.149 501.61 365.367 500.517 368.079 496.375 C 372.245 490.01 370.48 389.777 368.525 378.109 C 362.836 374.699 357.459 373.351 351.013 372.276 C 350.182 363.946 349.96 358.547 349.988 350.172 z"/>
<path transform="translate(0,0)" fill="rgb(236,34,35)" d="M 1440.9 437.354 C 1459.63 433.956 1507.47 434.629 1527.09 435.573 C 1562.38 437.407 1596.96 442.021 1621.72 470.221 C 1644.91 496.631 1666.8 546.338 1673.86 580.543 C 1726.88 587.458 1806.36 592.264 1844.18 636.83 C 1860.21 655.719 1860.62 691.188 1857.66 714.389 C 1856.53 723.2 1851.26 747.719 1843.93 753.554 L 1841.29 754.191 C 1840.75 750.578 1842 730.599 1842.16 725.529 C 1845.45 624.751 1757.49 615.743 1681.03 608.489 C 1681.83 614.509 1684.39 635.241 1686.3 640.392 L 1681.38 645.068 C 1676.53 631.141 1673 620.836 1669.86 606.42 C 1638.57 601.013 1601.49 599.784 1569.51 594.566 C 1555.53 592.286 1542.45 591.747 1528.43 587.514 C 1519.2 584.724 1510.46 580.487 1502.55 574.961 C 1473.92 555.008 1458.88 523.74 1452.94 490.142 C 1450.97 482.245 1449.65 469.782 1451.29 461.898 L 1452.44 461.225 C 1455.58 465.039 1457.04 474.039 1458.23 479.231 C 1488.72 559.345 1581.76 580.431 1659.04 578.062 C 1644.01 550.247 1636.21 526.376 1614.88 500.383 C 1582.8 461.298 1528.93 452.64 1481.78 443.594 C 1468.92 441.896 1453.29 440.317 1440.9 437.354 z"/>
<path transform="translate(0,0)" fill="rgb(238,95,80)" d="M 1440.9 437.354 C 1459.63 433.956 1507.47 434.629 1527.09 435.573 C 1516.37 435.494 1492.35 433.931 1484.02 437.477 C 1482.06 439.493 1482.19 440.703 1481.78 443.594 C 1468.92 441.896 1453.29 440.317 1440.9 437.354 z"/>
<path transform="translate(0,0)" fill="rgb(238,95,80)" d="M 1452.94 490.142 C 1450.97 482.245 1449.65 469.782 1451.29 461.898 L 1452.44 461.225 C 1455.58 465.039 1457.04 474.039 1458.23 479.231 C 1455.85 477.627 1455.41 477.117 1454.41 474.424 L 1453.38 473.878 L 1454.59 476.053 L 1453.23 476.603 C 1453.18 480.172 1453.3 486.82 1452.94 490.142 z"/>
<path transform="translate(0,0)" fill="rgb(236,34,35)" d="M 713.179 349.566 C 719.085 348.986 727.38 348.189 732.998 346.835 C 748.967 342.983 756.196 338.878 773.095 338.741 C 773.112 357.747 772.456 383.239 774.054 401.658 C 777 400.93 783.091 398.207 786.499 396.8 C 798.392 391.891 812.557 391.285 824.884 394.813 C 864.755 406.224 839.959 475.128 851.279 497.194 C 853.907 499.324 858.521 500.201 861.946 501.103 L 865.046 503.394 C 864.635 507.953 864.892 518.577 864.861 523.59 C 847.953 525.862 810.101 523.859 790.887 524.258 C 789.641 523.538 788.587 522.928 787.723 522.429 C 776.684 525.66 730.64 525.366 717.189 523.295 C 716.072 523.222 714.394 521.67 714.229 520.553 C 711.229 500.269 716.503 502.416 731.044 497.054 C 732.735 483.525 732.187 457.104 732.081 442.916 C 731.924 421.751 732.779 395.489 731.062 374.688 C 723.814 372.839 721.045 372.263 713.552 371.603 L 713.179 349.566 z M 773.311 430.297 C 772.918 443.168 770.846 489.667 776.503 498.396 C 780.085 500.191 781.744 500.293 785.675 500.946 C 795.891 501.138 798.891 500.989 807.36 494.822 C 808.661 481.65 808.462 466.14 808.184 452.816 C 807.97 442.587 811.748 421.057 798.543 421.323 C 788.13 422.46 782.139 424.523 773.311 430.297 z M 788.255 517.231 C 789.437 513.435 791.266 509.191 790.208 505.507 C 788.893 503.543 788.861 503.313 786.807 502.322 C 786.434 506.281 785.466 514.14 787.682 517.501 L 788.255 517.231 z"/>
<path transform="translate(0,0)" fill="rgb(242,250,250)" fill-opacity="0.0352941" d="M 786.807 502.322 C 788.861 503.313 788.893 503.543 790.208 505.507 C 791.266 509.191 789.437 513.435 788.255 517.231 L 787.682 517.501 C 785.466 514.14 786.434 506.281 786.807 502.322 z"/>
<path transform="translate(0,0)" fill="rgb(236,34,35)" d="M 990.589 174.375 C 1026.98 174.29 1042.32 199.965 1041.8 234.546 C 1041.68 242.643 1040.71 250.457 1038.08 258.222 C 1033.82 271.216 1024.47 281.93 1012.18 287.924 C 994.428 296.443 976.595 293.218 958.952 287.189 C 959.223 296.338 960.924 306.126 962.292 315.24 C 964.783 316.321 975.379 318.979 976.013 320.224 C 987.76 343.274 965.233 339.123 955.25 339.064 C 937.5 339.174 919.749 339.129 902 338.928 C 900.749 331.584 900.686 328.13 900.587 320.736 C 905.114 319.017 912.759 317.278 917.659 316.009 C 921.54 291.688 919.354 258.419 920.125 233.51 C 919.37 225.118 922.323 204.656 910.028 203.922 C 898.339 203.225 900.734 191.042 901.007 183.759 C 909.544 180.958 946.131 175.905 956.641 178.068 C 958.028 178.353 958.697 181.178 959.284 182.713 C 962.007 183.202 972.927 177.057 977.241 176.058 C 982.084 174.936 985.693 174.723 990.589 174.375 z M 961.715 206.375 C 959.091 221.25 958.463 244.889 960.701 260.18 C 961.884 268.254 977.475 269.381 984.384 268.633 C 991.605 264.99 996.471 259.256 998.398 251.323 C 1002.85 232.996 1004.14 196.356 976.829 198.017 C 969.835 199.866 967.142 201.514 961.715 206.375 z"/>
<path transform="translate(0,0)" fill="rgb(236,34,35)" d="M 710.049 174.387 C 768.098 175.833 743.933 229.193 752.584 268.69 L 766.453 271.413 C 766.96 276.937 766.9 285.805 767.025 291.597 C 728.428 292.623 686.793 291.635 647.75 291.729 C 637.021 291.761 626.292 291.867 615.564 292.048 C 615.346 287.089 614.971 281.931 616.001 276.974 C 617.748 268.562 633.247 272.565 633.64 262.068 C 634.296 244.5 636.117 223.706 631.738 206.81 C 631.021 204.042 619.376 202.502 616.573 202.055 C 616.172 195.757 616.217 188.959 616.135 182.614 C 633.911 180.69 651.367 176.651 669.183 177.576 C 671.837 179.523 671.187 179.488 672.311 183.042 C 674.877 185.032 692.619 176.058 697.646 175.743 C 701.126 175.525 706.303 174.686 710.049 174.387 z M 676.666 267.804 L 688.179 272.575 C 688.131 277.614 687.899 282.824 688.703 287.781 C 692.571 287.786 691.256 288.329 693.804 286.016 C 695.632 281.992 695.337 276.829 695.419 272.32 C 699.192 271.157 704.71 269.917 707.384 267.31 C 711.57 256.231 710.784 217.954 707.393 205.659 C 706.422 202.139 702.689 200.759 699.21 200.262 C 692.889 201.147 681.33 204.094 677.904 208.995 C 672.787 216.314 675.105 257.799 676.328 265.834 C 676.428 266.493 676.541 267.149 676.666 267.804 z"/>
<path transform="translate(0,0)" fill="rgb(236,34,35)" d="M 1072.14 739.031 C 1082.78 711.06 1104.13 688.479 1131.45 676.278 C 1157.02 664.575 1193.85 663.69 1219.85 673.679 C 1263.96 690.629 1283.18 727.555 1290 771.195 C 1347.71 770.161 1408.03 773.762 1465.87 773.03 C 1482.28 772.822 1512.03 774.603 1526.72 773.195 C 1528.47 733.92 1543.47 700.672 1587.54 697.052 C 1549.69 733.427 1545.22 744.866 1546.88 798.456 L 1360.86 796.985 L 1303.19 796.787 C 1293.44 796.785 1279.24 797.218 1269.79 796.406 C 1270.17 786.051 1269.92 779.671 1268.22 769.308 C 1267.41 762.583 1263.85 750.722 1261 744.6 L 1257.37 737.167 C 1233.03 685.118 1180.9 670.569 1130.05 694.859 C 1104.24 707.19 1092.41 720.596 1072.14 739.031 z"/>
<path transform="translate(0,0)" fill="rgb(236,34,35)" d="M 1117.58 174.438 C 1136.14 173.899 1152.66 176.5 1167.94 188.708 C 1192.22 208.099 1194.66 249.039 1174.58 272.204 C 1162.75 285.84 1145.93 291.373 1128.03 292.519 L 1127.07 292.618 C 1093.69 295.858 1057.62 277.431 1054.88 241.003 C 1051.6 197.44 1077.53 177.947 1117.58 174.438 z M 1127.19 268.858 C 1139.6 263.214 1142.94 252.188 1143.81 239.244 C 1145.21 218.61 1140.91 196.495 1115.99 198.207 C 1102.69 205.051 1099.16 215.248 1098.72 230.133 C 1098.09 251.209 1102 270.578 1127.19 268.858 z"/>
<path transform="translate(0,0)" fill="rgb(236,34,35)" d="M 1140.4 393.27 C 1148.71 392.332 1168.47 392.51 1176.56 394.238 C 1206.54 400.643 1206.86 422.25 1206.86 446.895 L 1206.74 480.334 C 1206.75 493.06 1204.42 492.936 1216.28 498.242 C 1252.44 514.427 1203.52 532.247 1187.07 524.03 C 1172.14 516.573 1179.85 508.946 1159.76 520.645 C 1145.37 529.022 1125.14 528.178 1111.04 519.166 C 1095.73 506.646 1091.77 483.941 1104.22 467.78 C 1119.08 448.483 1145.73 445.672 1168.35 442.527 C 1168.2 436.598 1168.96 421.164 1163.21 418.831 C 1125.64 403.584 1149.33 454.07 1118.39 446.724 C 1112.17 445.248 1110.41 444.205 1105.42 441.089 C 1096.51 412.638 1113.91 397.763 1140.4 393.27 z M 1143.76 495.208 C 1151.88 499.499 1161.48 493.762 1167.86 488.542 C 1167.95 481.696 1168.35 471.484 1167.56 465.001 L 1166.16 464.078 C 1152.46 467.689 1125.39 477.049 1143.76 495.208 z"/>
<path transform="translate(0,0)" fill="rgb(236,34,35)" d="M 610.989 444.393 C 585.256 453.215 576.379 434.385 585.858 413.183 C 598.438 385.043 677.654 384.211 683.969 417.758 C 688.565 442.173 684.401 472.217 687.203 497.994 C 700.647 496.419 704.364 499.512 709.623 511.788 L 708.814 513.704 L 706.283 516.358 L 705.334 517.088 C 689.321 529.264 665.392 530.457 652.592 513.255 C 651.375 514.093 650.145 514.912 648.902 515.71 C 624.753 531.157 594.217 531.598 578.012 505.092 L 576.884 500.854 C 576.828 486.915 576.623 474.25 587.384 463.553 C 603.464 447.569 627.184 446.585 647.689 442.942 C 647.541 436.481 648.481 424.853 643.889 420.208 C 639.85 416.123 625.431 414.614 622.246 420.131 C 616.528 430.034 619.587 435.154 610.989 444.393 z M 623.893 496.225 C 631.086 499.269 640.622 493.85 647.191 490.637 C 647.284 485.473 648.266 467.22 646.004 464.172 L 644.966 464.029 C 628.719 468.355 608.758 477.043 623.893 496.225 z"/>
<path transform="translate(0,0)" fill="rgb(236,34,35)" d="M 216.42 137.041 L 346.838 137.205 C 351.303 145.447 362.636 174.409 366.103 183.845 C 357.098 187.803 348.42 193.165 341.372 182.528 C 330.658 166.359 321.587 160.957 302.802 157.653 C 303.283 188.999 300.361 220.99 302.129 252.601 C 303.661 280.004 319.171 264.79 325.12 274.909 L 324.942 291.154 C 298.567 292.63 263.645 291.725 236.869 291.309 C 236.522 284.252 236.592 280.176 237.028 273.133 C 243.32 270.964 251.982 270.571 257.159 266.774 C 261.906 258.328 259.524 173.753 259.146 158.068 C 216.565 161.182 228.818 200.682 196.969 184.164 C 199.395 175.337 210.866 141.848 216.42 137.041 z"/>
<path transform="translate(0,0)" fill="rgb(236,34,35)" d="M 536.504 174.435 C 605.279 175.958 588.785 212.755 590.103 267.817 C 605.901 266.857 604.86 267.806 613.134 281.315 C 595.504 296.502 573.535 297.635 555.854 281.903 C 533.289 294.082 507.496 300.218 486.931 280.738 C 483.347 276.73 480.852 272.631 480.133 267.273 C 474.686 226.711 523.246 222.735 551.03 218.451 C 549.366 206.845 552.626 195.789 536.459 194.937 C 518.926 192.207 521.458 226.77 504.132 223.727 C 483.286 220.066 483.758 209.182 486.778 193.889 C 499.753 177.676 517.137 175.6 536.504 174.435 z M 525.94 265.522 C 534.501 269.62 542.04 264.716 550.008 261.066 C 550.14 257.036 551.039 241.548 549.732 238.435 C 535.683 240.922 511.524 246.171 525.94 265.522 z"/>
<path transform="translate(0,0)" fill="rgb(236,34,35)" d="M 929.652 393.273 C 934.511 392.812 939.393 392.657 944.271 392.809 C 983.924 393.657 999.032 420.881 998.305 457.036 C 976.828 458.45 943.433 457.924 921.84 457.282 C 922.139 470.969 923.952 487.786 936.495 495.976 C 941.759 499.411 948.188 500.57 954.32 499.191 C 966.981 496.436 974.237 486.334 980.61 476.156 L 991.668 481.262 C 995.365 483.279 997.56 484.277 999.044 488.166 C 999.339 492.006 998.719 493.026 996.871 496.178 C 968.481 544.6 889.268 532.303 879.461 475.258 C 872.923 437.23 887.366 400.682 929.652 393.273 z M 922.3 435.536 C 930.28 435.835 938.266 435.89 946.249 435.701 L 957.998 434.858 C 954.209 423.447 949.935 417.568 937.066 418.135 C 928.035 422.893 926.444 426.106 922.3 435.536 z"/>
<path transform="translate(0,0)" fill="rgb(236,34,35)" d="M 1291.46 329.241 C 1310.34 336.493 1329.83 342.007 1349.71 345.715 C 1402.86 355.631 1468.53 356.956 1511.07 398.368 C 1515.17 402.165 1524.37 410.655 1523.26 416.702 C 1518.63 418.258 1513.88 414.154 1509.88 411.63 C 1506.78 410.852 1492.75 402.915 1489.16 401.014 C 1440.04 375.006 1394.49 365.313 1339.35 365.734 C 1368.14 401.28 1369.63 453.192 1371.17 496.665 C 1372.95 544.213 1372.8 591.578 1378.45 638.91 C 1379.05 643.864 1383.84 663.963 1381.53 666.386 C 1355.18 633.973 1353.86 543.98 1349.49 501.283 C 1348.1 487.691 1345.88 474.198 1342.84 460.879 C 1335.25 426.277 1325.42 395.433 1310.11 363.322 C 1304.52 351.588 1297.7 340.645 1291.46 329.241 z"/>
<path transform="translate(0,0)" fill="rgb(236,34,35)" d="M 511.448 655.57 C 528.315 654.366 546.09 654.996 563.255 654.577 C 613.521 653.35 671.439 655.211 706.777 696.612 C 724.552 717.437 728.427 742.306 730.923 768.693 C 783.256 772.621 835.631 775.978 888.038 778.765 C 912.924 780.191 937.813 780.964 962.626 783.476 C 967.676 783.987 971.867 782.474 975.294 786.723 C 974.985 790.758 975.59 789.296 973.145 792.318 C 966.698 795.734 941.304 793.516 932.322 793.36 C 904.801 792.857 877.274 792.725 849.749 792.963 C 803.658 791.223 756.431 792.986 710.208 791.145 C 709.496 768.253 705.863 746.154 694.432 726.02 C 659.817 665.049 605.807 669.145 546.004 668.887 C 512.025 668.899 478.047 669.221 444.075 669.852 C 433.846 670.027 402.07 671.467 393.479 668.94 L 393.264 667.863 C 405.645 661.084 490.868 656.851 511.448 655.57 z"/>
<path transform="translate(0,0)" fill="rgb(236,34,35)" d="M 1335.36 687.017 C 1355.85 684.513 1377.49 682.88 1398.18 680.694 C 1477.2 672.339 1557.17 661.224 1636.73 667.517 C 1642.97 668.019 1648.75 668.705 1654.89 669.96 C 1671.72 673.448 1687.52 680.778 1701.04 691.376 C 1730.24 714.201 1736.49 744.565 1738.11 779.51 C 1761.16 780.399 1784.17 782.025 1807.11 784.385 C 1808.57 786.878 1808.11 786.126 1807.98 789.495 C 1803.03 796.935 1789.59 794.238 1781.12 794.491 L 1722.94 795.977 C 1719.95 765.188 1716.79 728.324 1691.27 707.591 C 1680.63 698.945 1661.84 688.917 1648.36 687.245 C 1611.82 682.709 1568.54 686.588 1531.53 689.07 C 1498.05 691.418 1464.54 693.298 1431 694.71 C 1402.72 696.093 1365.33 697.775 1337.34 696.206 C 1324.67 696.382 1309.13 695.301 1295.95 695.129 C 1292.18 694.503 1286.79 694.215 1284.13 691.961 L 1285.23 690.707 C 1291.57 688.664 1298.22 688.77 1304.9 688.49 C 1315.05 687.934 1325.2 687.443 1335.36 687.017 z"/>
<path transform="translate(0,0)" fill="rgb(238,95,80)" d="M 1304.9 688.49 C 1315.05 687.934 1325.2 687.443 1335.36 687.017 C 1331.08 691.185 1324.23 688.72 1320.28 690.84 L 1320.88 690.851 L 1318.17 692.533 L 1318.75 693.333 C 1323.16 693.394 1327.57 693.479 1331.98 693.587 C 1334.34 693.667 1335.42 694.753 1337.34 696.206 C 1324.67 696.382 1309.13 695.301 1295.95 695.129 C 1292.18 694.503 1286.79 694.215 1284.13 691.961 L 1285.23 690.707 C 1291.57 688.664 1298.22 688.77 1304.9 688.49 z"/>
<path transform="translate(0,0)" fill="rgb(243,149,141)" d="M 1295.95 695.129 C 1292.18 694.503 1286.79 694.215 1284.13 691.961 L 1285.23 690.707 C 1291.57 688.664 1298.22 688.77 1304.9 688.49 C 1298.96 691.782 1300.33 694.001 1295.95 695.129 z"/>
<path transform="translate(0,0)" fill="rgb(236,34,35)" d="M 1536.37 271.707 C 1507.1 304.049 1446.03 299.615 1425.66 259.068 C 1418.29 244.394 1419.95 226.114 1424.57 210.826 C 1434.44 178.191 1480.62 167.062 1509.48 178.165 C 1522.19 183.023 1532.38 192.833 1537.72 205.347 C 1540.17 211.118 1543.64 224.312 1541.27 230.309 C 1537.56 233.044 1474.37 231.922 1464.23 231.918 C 1465.78 247.931 1470.27 269.134 1490.52 269.205 C 1506.14 269.259 1515.4 258.665 1525.52 248.455 C 1528.99 250.038 1532.69 251.555 1536.21 253.059 C 1539.34 254.665 1541.95 255.562 1543.33 258.809 C 1543.76 262.332 1542.95 263.579 1540.8 266.338 C 1539.35 268.156 1537.88 269.946 1536.37 271.707 z M 1465.55 212.931 L 1485.18 212.903 C 1490.64 212.893 1496.22 212.995 1501.65 212.487 C 1499.89 208.575 1498.06 204.057 1495.61 200.605 C 1490.13 198.438 1488.28 197.506 1482.48 197.151 C 1472.15 199.002 1470.08 203.852 1465.55 212.931 z"/>
<path transform="translate(0,0)" fill="rgb(236,34,35)" d="M 825.879 174.424 C 836.629 173.984 845.738 176.371 855.696 179.875 C 863.891 177.579 868.681 177.327 876.99 176.862 C 878.526 188.303 879.95 199.759 881.262 211.228 C 849.425 220.452 861.087 201.749 833.491 195.715 C 826.558 194.199 811.914 202.561 815.126 206.593 C 823.915 217.629 852.239 215.7 865.48 221.319 C 894.068 230.407 899.018 255.459 879.967 276.95 C 868.739 289.314 851.499 292.642 834.193 292.643 C 823.753 292.303 819.033 292.105 809.068 288.184 C 799.083 292.468 797.134 292.413 786.598 292.218 C 783.011 281.022 779.942 265.249 777.453 253.541 C 783.918 252.477 790.4 251.513 796.896 250.648 C 805.945 260.431 815.019 268.45 828.684 270.358 C 836.567 271.459 853.255 270.403 853.959 260.155 C 846.509 244.324 782.672 256.797 779.994 220.032 C 777.661 188.002 797.3 177.12 825.879 174.424 z"/>
<path transform="translate(0,0)" fill="rgb(236,34,35)" d="M 1605.56 174.411 C 1615.71 174.663 1622.7 176.911 1632.5 178.047 C 1638.99 178.798 1649.32 177.365 1656.29 176.736 C 1657.58 188.741 1659.43 200.212 1659.91 212.341 L 1641.68 214.916 C 1633.91 205.899 1625.62 197.442 1613.2 195.955 C 1605.36 195.015 1595.29 197.287 1595.06 206.764 C 1604.77 222.413 1674.8 209.227 1669.45 254.592 C 1665.84 285.194 1636.39 293.975 1610.66 292.676 C 1604.19 292.241 1597.91 290.644 1591.29 290.509 C 1582.7 290.334 1575.05 291.545 1566.26 291.846 C 1563.04 280.142 1558.64 264.162 1557.52 252.156 L 1576.57 250.623 L 1577.63 251.755 C 1591.06 266.128 1611.45 281.101 1631.41 264.797 C 1633.33 263.227 1633.2 261.564 1633.19 259.37 C 1632.33 257.473 1630.82 255.423 1628.74 254.815 C 1602.11 246.94 1553.87 251.131 1559.23 209.841 C 1562.7 183.173 1581.52 176.607 1605.56 174.411 z"/>
<path transform="translate(0,0)" fill="rgb(236,34,35)" d="M 1054.55 396.406 C 1061.04 395.78 1068.9 395.897 1075.51 395.82 C 1076.72 415.755 1075.12 442.575 1075.54 463.35 C 1076.67 488.494 1074.91 514.318 1074.74 539.236 C 1074.47 578.267 1009.74 594.25 989.067 568.439 C 986.522 562.212 986.206 551.357 990.546 545.752 C 1001.26 531.916 1024.71 555.912 1031.18 554.893 C 1031.54 554.385 1032 553.631 1032.24 553.131 C 1033.71 550.154 1035.29 540.815 1035.32 537.862 C 1035.5 522.38 1037.57 440.696 1034.1 430.091 C 1030.02 425.122 1023.97 424.853 1017.73 423.785 C 1017.46 415.752 1017.51 409.137 1017.79 401.101 C 1029.39 399.293 1042.78 397.898 1054.55 396.406 z"/>
<path transform="translate(0,0)" fill="rgb(236,34,35)" d="M 1342.66 141.999 C 1350.41 141.671 1358.16 141.561 1365.92 141.669 C 1367.12 153.994 1365.86 165.484 1366.58 177.674 C 1378.04 177.143 1389.02 177.385 1400.07 176.933 C 1400.09 183.735 1400.35 192.512 1400.01 199.149 C 1388.62 198.889 1377.24 198.82 1365.85 198.942 C 1366.09 212.303 1364.71 257.492 1370.81 265.706 C 1377.42 268.752 1390.89 258.875 1397.31 255.889 C 1399.52 258.341 1407.88 268.143 1410.1 269.117 C 1406.67 284.684 1376.07 292.349 1362.38 292.773 C 1324.93 293.931 1325.22 269.002 1325.89 239.511 C 1326.19 226.87 1326.3 211.799 1326.12 199.128 C 1320.49 199.326 1313.61 200.43 1309.57 196.931 L 1309.76 194.016 C 1309.78 189.613 1309.64 184.089 1309.89 179.785 C 1333.83 171.643 1335.6 166.35 1342.66 141.999 z"/>
<path transform="translate(0,0)" fill="rgb(236,34,35)" d="M 423.509 186.073 C 451.654 169.069 493.351 180.186 467.193 210.109 C 447.909 217.442 439.431 204.907 429.832 207.861 C 426.698 216.155 427.83 258.1 430.197 267.962 L 443.963 273.204 C 444.153 278.875 444.779 286.07 443.512 291.453 C 420.605 292.247 391.955 292.022 368.95 291.528 C 368.873 286.137 369.441 278.058 369.683 272.47 C 375.76 271.543 380.794 271.219 385.399 267.098 C 389.009 259.607 387.707 215.863 385.789 206.634 C 378.849 203.585 376.71 203.286 369.078 202.281 C 368.758 195.24 368.335 191.087 367.242 184.123 C 377.359 180.385 399.609 178.468 410.923 177.413 C 414.521 177.307 416.358 177.152 419.976 177.849 C 423.016 180.993 422.284 181.202 423.509 186.073 z"/>
<path transform="translate(0,0)" fill="rgb(236,34,35)" d="M 1200.65 182.699 C 1215.66 180.564 1238.09 176.385 1252.32 177.833 C 1255.25 179.922 1253.3 179.903 1254.83 184.824 C 1269.36 184.665 1290.2 163.252 1305.47 189.039 C 1307.95 199.78 1306.03 209.107 1293.57 212.117 C 1282.72 214.736 1270.67 208.516 1260.38 205.222 C 1258.68 216.76 1258.42 233.658 1259.17 245.441 C 1258.82 252.592 1259.88 260.176 1261.06 267.209 C 1265.47 269.316 1270.96 271.315 1275.57 273.133 C 1275.94 278.635 1275.74 285.252 1275.71 290.846 C 1257.19 292.719 1221.09 291.703 1201.13 291.707 C 1200.89 285.341 1200.89 278.572 1200.78 272.169 C 1206.24 271.353 1213.52 270.962 1216.99 266.648 C 1220.64 256.809 1218.96 218.597 1217.23 207.291 C 1211.07 203.937 1208.42 203.409 1201.51 202.213 L 1200.65 182.699 z"/>
<path transform="translate(0,0)" fill="rgb(236,34,35)" d="M 350.929 949.272 C 350.015 946.495 349.624 945.272 350.018 942.362 C 354.588 935.266 381.938 936.922 390.454 936.282 C 392.133 936.156 397.175 939.475 399.237 939.477 C 412.835 937.28 426.987 927.214 431.894 947.863 C 434.029 956.849 432.025 966.878 432.77 975.98 C 433.173 981.753 441.083 992.318 438.513 997.511 C 432.937 998.65 353.355 998.619 351.079 997.383 L 349.775 994.162 C 349.721 989.765 349.703 983.958 346.501 980.602 C 344.382 979.595 339.764 976.594 337.556 975.246 C 341.836 973.09 344.004 971.68 345.524 967.033 C 345.357 965.23 345.558 964.851 345.851 963.074 C 348.3 958.541 350.47 954.395 350.929 949.272 z M 404.055 985.571 C 406.124 986.943 409.02 989.334 411.291 989.267 C 416.637 983.09 418.122 956.307 414.218 950.323 C 410.975 949.37 408.131 949.934 404.793 950.311 C 401.182 955.48 403.399 978.505 404.055 985.571 z M 382.59 986.871 C 384.907 984.95 385.79 984.272 385.894 980.534 C 386.053 974.812 387.264 954.494 385.317 950.461 C 381.915 950.165 380.216 950.098 376.762 950.194 C 371.58 956.085 372.047 980.569 377.926 986.279 L 382.59 986.871 z"/>
<path transform="translate(0,0)" fill="rgb(242,250,250)" d="M 350.929 949.272 C 353.557 950.482 356.505 951.268 357.327 954.144 C 359.742 962.596 358.167 975.79 358.026 984.529 C 352.707 988.063 351.293 988.209 349.775 994.162 C 349.721 989.765 349.703 983.958 346.501 980.602 C 344.382 979.595 339.764 976.594 337.556 975.246 C 341.836 973.09 344.004 971.68 345.524 967.033 C 345.357 965.23 345.558 964.851 345.851 963.074 C 348.3 958.541 350.47 954.395 350.929 949.272 z"/>
<path transform="translate(0,0)" fill="rgb(236,34,35)" d="M 1814.59 950.943 C 1820.34 929.732 1836.16 935.569 1853.96 936.952 C 1854.26 943.333 1855.42 951.888 1852.27 957.279 C 1846.29 959.302 1844.05 952.37 1836.96 948.869 C 1832.92 949.411 1832.22 948.763 1829.83 951.172 L 1830.25 953.36 C 1837.48 960.064 1853.43 954.158 1858.27 972.387 C 1865.9 1001.13 1813.25 1010.19 1813.79 983.419 C 1813.85 980.404 1816.38 977.464 1816.08 974.081 C 1811.66 973.828 1802.9 991.749 1797.88 994.893 C 1780.05 1005.48 1762.45 997.403 1758.32 976.819 C 1753.52 954.437 1762.89 931.191 1789.34 935.73 C 1795.91 936.857 1799.79 939.429 1803.4 944.919 L 1803.98 945.823 C 1805.54 949.287 1812.17 965.905 1813.74 967.232 C 1815.25 962.983 1813.58 956.718 1814.59 950.943 z M 1784.68 985.249 C 1793.9 975.838 1795.95 952.616 1781.76 947.996 C 1773.38 955.346 1772.44 985.304 1784.68 985.249 z M 1839.76 985.477 L 1841.64 981.902 C 1839.06 976.618 1830.59 976.084 1825.19 976.247 C 1827.22 983.918 1831.58 988.077 1839.76 985.477 z"/>
<path transform="translate(0,0)" fill="rgb(236,34,35)" d="M 1589.89 983.613 C 1590.03 976.732 1590.09 969.289 1590.22 962.463 C 1590.44 950.745 1589.44 954.506 1583.71 947.033 C 1583.18 943.985 1583.46 943.587 1584.97 940.845 C 1588.63 937.236 1618.62 936.212 1625.26 936.237 C 1625.26 936.237 1629.61 938.894 1630.2 939.258 C 1635.14 939.566 1638.88 937.735 1643.59 936.515 C 1675.45 928.262 1662.02 965.202 1666.5 982.284 C 1667.58 986.372 1667.33 985.909 1670.73 987.856 L 1675.18 988.78 C 1675.87 992.434 1676.33 994.402 1676.31 998.143 L 1672.07 998.087 C 1662.82 998.283 1653.57 998.321 1644.31 998.201 L 1640.04 998.249 C 1628.75 998.235 1595.93 999.327 1584.3 996.503 C 1583.35 996.272 1583.41 994.501 1583.22 993.169 C 1584.31 989.023 1586.95 986.765 1589.89 983.613 z M 1642.86 988.881 L 1645.52 988.327 C 1650.26 983.571 1650.26 954.904 1646.43 949.975 L 1643.39 949.999 C 1639.78 950.851 1638.84 950.44 1636.53 952.737 C 1634.71 960.715 1634.47 977.439 1637.42 985.525 C 1638.28 987.891 1640.35 988.021 1642.86 988.881 z M 1614.79 990.123 C 1618.71 983.534 1621.1 956.786 1618.31 950.428 C 1615.31 949.875 1614.48 949.841 1611.42 949.928 C 1608.29 952.285 1607.51 952.233 1606.91 956.539 C 1605.83 964.224 1605.3 980.183 1609.45 986.526 C 1611.29 987.829 1612.87 988.94 1614.79 990.123 z"/>
<path transform="translate(0,0)" fill="rgb(249,206,192)" d="M 1670.73 987.856 L 1675.18 988.78 C 1675.87 992.434 1676.33 994.402 1676.31 998.143 L 1672.07 998.087 C 1671.15 995.02 1671.01 991.112 1670.73 987.856 z"/>
<path transform="translate(0,0)" fill="rgb(249,206,192)" d="M 1642.86 988.881 C 1645.37 992.965 1644.52 992.594 1644.31 998.201 L 1640.04 998.249 C 1639.42 993.335 1638.25 991.363 1642.86 988.881 z"/>
<path transform="translate(0,0)" fill="rgb(236,34,35)" d="M 1397.7 935.288 C 1401.82 935.439 1407.28 935.475 1410.02 938.867 C 1418.13 948.919 1414.94 971.742 1414.8 984.044 L 1421.15 987.905 C 1423.59 990.659 1423 994.152 1422.91 997.881 C 1401.03 999.103 1371.1 998.05 1348.25 998.09 C 1343.99 998.285 1338.85 998.982 1335.14 997.16 C 1330.23 991.883 1335.24 987.541 1339.16 983.19 C 1340.17 972.224 1339.73 964.088 1338.66 953.237 C 1335.76 951.128 1335.18 950.746 1332.98 947.765 C 1332.26 943.654 1332 945.205 1333.62 941.747 C 1341.16 935.828 1365.13 936.244 1375.67 936.407 C 1376.28 936.417 1380.19 940.184 1381.56 939.688 C 1386.64 937.845 1392.53 936.01 1397.7 935.288 z M 1364.29 992.085 C 1368.72 983.172 1371.94 959.461 1368.07 950.58 C 1366.45 950.325 1366.22 950.178 1364.56 950.318 L 1357.84 951.447 C 1355.31 955.411 1356.87 978.844 1357.63 984.221 C 1360.98 986.869 1363.05 988.02 1364.29 992.085 z M 1389.76 987.664 C 1392.39 986.972 1396.37 986.374 1397.93 984.44 C 1398.57 976.944 1398.53 958.054 1397.54 950.627 C 1395.55 950.295 1394.44 950.044 1392.38 950.098 C 1390.38 950.551 1387.46 950.738 1386.82 952.387 C 1383.64 960.53 1385.45 978.276 1387.64 986.143 L 1389.76 987.664 z"/>
<path transform="translate(0,0)" fill="rgb(2,6,2)" fill-opacity="0.0941176" d="M 1362.65 952.927 C 1364.32 953.375 1364.25 953.511 1365.53 954.731 C 1366.23 964.799 1364.35 969.313 1364.6 978.223 L 1364.63 979.203 L 1364.14 979.329 C 1362.93 978.102 1362.76 956.51 1362.65 952.927 z"/>
<path transform="translate(0,0)" fill="rgb(236,34,35)" d="M 790.812 939.88 C 835.43 926.313 821.156 950.707 825.998 983.309 C 826.565 987.126 833.677 984.591 831.133 995.584 C 828.671 998.24 826.631 998.433 822.594 998.473 C 806.531 998.631 791.01 998.016 774.902 998.632 L 770.969 998.16 C 761.939 998.193 752.909 998.173 743.88 998.101 L 744.076 987.188 L 747.582 985.52 C 750.463 980.227 750.121 961.165 749.267 954.757 C 748.863 951.724 747.602 951.631 745.25 950.209 L 744.321 949.816 C 742.274 947.744 742.103 943.901 741.563 940.782 C 747.515 936.803 771.212 937.264 781.736 935.602 C 784.786 936.988 787.844 938.327 790.812 939.88 z M 774.74 987.172 C 779.431 981.62 781.655 951.396 772.685 948.982 C 762.677 953.662 763.381 979.376 768.867 987.418 L 774.74 987.172 z M 803.652 989.564 C 808.818 983.491 809.724 956.675 806.511 950.662 C 805.392 950.501 804.051 950.227 802.959 950.283 C 799.208 950.88 797.651 950.364 795.737 952.687 C 794.153 961.934 794.851 974.58 797.183 983.841 C 797.981 987.013 800.979 988.055 803.652 989.564 z"/>
<path transform="translate(0,0)" fill="rgb(232,224,208)" d="M 768.867 987.418 L 774.74 987.172 C 774.705 991.138 774.693 994.669 774.902 998.632 L 770.969 998.16 C 770.17 994.811 769.518 990.85 768.867 987.418 z"/>
<path transform="translate(0,0)" fill="rgb(236,34,35)" d="M 1224.11 710.409 C 1231.5 715.521 1245.39 730.57 1251.13 737.698 C 1253.96 744.105 1256.85 750.125 1258.5 756.931 C 1258.86 758.941 1260.06 766.433 1260.77 767.787 C 1261.73 780.606 1260.9 799.252 1256.39 811.441 C 1240.56 854.267 1193.7 869.315 1152.93 854.708 C 1138.14 849.41 1115.8 834.551 1109.24 820.09 L 1110.21 819.06 C 1113.49 819.582 1136.94 830.053 1142.34 831.984 C 1194.73 850.707 1247.54 824.323 1243.6 763.317 C 1242.29 742.986 1233.91 729.109 1224.11 710.409 z"/>
<path transform="translate(0,0)" fill="rgb(236,34,35)" d="M 566.083 828.386 C 589.409 835.041 600.681 841.157 626.402 836.298 C 682.689 825.666 692.284 762.183 664.747 720.116 C 663.803 718.674 663.54 715.886 664.191 714.151 C 670.412 715.619 681.347 731.215 684.941 736.864 C 697.085 755.951 699.339 781.681 693.99 803.338 C 683.4 846.217 640.1 868.335 598.472 857.369 C 588.405 854.717 571.813 848.28 564.611 840.963 C 560.186 838.392 545.691 825.867 544.763 820.991 C 550.248 819.589 560.621 825.744 566.083 828.386 z"/>
<path transform="translate(0,0)" fill="rgb(238,95,80)" d="M 564.611 840.963 C 560.186 838.392 545.691 825.867 544.763 820.991 C 550.248 819.589 560.621 825.744 566.083 828.386 C 559.636 829.991 557.973 825.438 554.433 826.683 C 557.353 835.34 562.205 832.9 564.611 840.963 z"/>
<path transform="translate(0,0)" fill="rgb(236,34,35)" d="M 491.68 724.64 C 489.755 721.601 487.757 719.303 487.772 715.854 L 489.19 715.144 C 493.928 717.218 499.256 722.915 501.368 727.208 C 501.977 727.799 502.555 728.422 503.098 729.074 C 546.681 782.104 507.009 868.91 435.003 859.6 C 402.701 855.423 385.798 842.188 365.563 817.862 C 376.462 820.91 387.838 827.719 398.772 831.482 C 476.16 858.116 527.251 798.731 491.68 724.64 z"/>
<path transform="translate(0,0)" fill="rgb(238,95,80)" d="M 491.68 724.64 C 489.755 721.601 487.757 719.303 487.772 715.854 L 489.19 715.144 C 493.928 717.218 499.256 722.915 501.368 727.208 C 500.13 727.369 500.146 727.2 498.844 726.897 C 497.138 724.704 496.789 723.871 494.354 722.765 L 491.68 724.64 z"/>
<path transform="translate(0,0)" fill="rgb(236,34,35)" d="M 1589.99 830.676 C 1613.04 838.719 1638.24 842.117 1661.04 830.928 C 1676.27 823.511 1687.88 810.291 1693.27 794.233 C 1700.02 773.452 1698.23 750.838 1688.29 731.379 C 1685.63 726.201 1682.8 722.296 1681.46 716.615 L 1682.06 715.313 C 1691.4 719.163 1706.71 740.938 1710.02 750.644 C 1734.25 821.833 1670.03 882.235 1600.44 852.429 C 1594.8 850.01 1590.66 847.503 1585.9 843.719 C 1585.67 838.983 1585.61 837.338 1586.33 832.704 L 1589.99 830.676 z"/>
<path transform="translate(0,0)" fill="rgb(236,34,35)" d="M 914.611 909.045 L 916.004 909.273 C 920.074 917.419 909.579 986.653 924.996 988.331 C 930.802 982.877 933.145 964.829 932.139 957.015 C 931.483 951.919 929.603 951.551 925.923 948.767 C 922.058 941.166 929.072 937.532 934.386 934.485 C 930.712 924.88 923.123 904.507 942.974 909.586 C 952.093 911.92 944.144 929.771 947.879 938.001 C 949.182 950.219 948.803 971.302 949.306 984.66 C 952.072 987.722 954.018 989.356 954.866 993.38 C 952.778 1002.46 907.687 997.189 898.321 998.252 C 897.645 998.329 893.863 997.277 893.895 996.544 C 894.853 974.557 898.032 951.758 898.188 929.725 C 898.205 926.981 890.145 925.083 892.506 917.312 C 896.513 913.495 908.859 910.643 914.611 909.045 z"/>
<path transform="translate(0,0)" fill="rgb(236,34,35)" d="M 861.221 936.627 C 869.105 935.423 875.97 934.143 882.154 940.4 C 894.013 952.518 891.939 982.267 880.56 994.138 C 874.673 1000.28 866.089 998.684 858.138 998.508 C 856.413 1007.49 866.56 1013.2 865.411 1021.4 C 863.103 1024.41 863.715 1023.53 859.457 1024.79 C 851.373 1023.88 838.017 1027.51 834.141 1019.2 C 834.268 1013.22 837.7 1009.37 841.493 1005.01 C 839.592 987.443 842.194 972.261 840.479 955.022 C 840.065 950.859 832.304 949.865 833.806 941.455 C 837.908 936.878 853.963 937.163 861.221 936.627 z M 863.911 986.065 C 867.532 984.191 869.608 983.934 870.869 979.777 C 873.656 970.583 872.986 960.239 870.524 951.132 C 869.072 949.782 869.003 949.521 867.083 948.883 C 864.729 949.44 860.659 949.735 859.866 952.368 C 857.506 960.204 855.298 982.3 863.911 986.065 z"/>
<path transform="translate(0,0)" fill="rgb(236,34,35)" d="M 478.11 935.311 C 489.56 935.411 493.256 942.552 496.299 952.078 C 501.361 967.925 498.407 984.904 485.775 996.345 C 480.807 1000.84 472.648 998.851 466.644 998.152 C 461.446 1005.76 474.188 1012.41 473.024 1021.96 C 470.033 1024.54 470.263 1023.8 465.731 1024.51 C 457.994 1024.7 446.259 1026.84 441.992 1019.48 C 441.614 1013.46 445.02 1009.42 448.67 1004.94 C 449.856 986.916 449.335 971.123 448.849 953.091 C 444.992 950.416 443.988 950.272 441.985 945.776 C 442.106 935.332 468.592 936.883 478.11 935.311 z M 477.221 984.849 C 481.032 976.881 483.995 955.679 476.382 949.346 C 473.477 948.256 472.597 948.518 469.472 948.87 C 464.633 953.906 464.797 978.589 467.623 984.293 C 471.058 985.413 473.621 985.039 477.221 984.849 z"/>
<path transform="translate(0,0)" fill="rgb(236,34,35)" d="M 1460.02 935.295 C 1485.81 934.355 1486.48 983.745 1469.1 995.56 C 1461.28 1000.87 1458.74 999.119 1450.04 998.248 C 1443.67 1002.94 1457.07 1013.93 1455.65 1021.53 C 1453.24 1024.54 1453.97 1023.65 1449.56 1024.76 C 1441.64 1024.33 1429.91 1026.81 1424.98 1020.38 C 1424.3 1014.34 1427.66 1011.21 1431.37 1006.55 C 1432.69 992.408 1432.18 969.651 1431.51 955.465 C 1427.08 950.721 1423 947.129 1426.92 940.783 C 1434.2 935.977 1448.68 937.613 1460.02 935.295 z M 1460.58 982.919 C 1463.96 974.537 1467.36 955.597 1458.51 949.385 C 1455.24 948.897 1454.44 948.941 1451.14 949.224 C 1447.95 953.062 1448.27 979.018 1450.79 983.317 C 1453.89 984.65 1457.32 983.825 1460.58 982.919 z"/>
<path transform="translate(0,0)" fill="rgb(236,34,35)" d="M 1121.89 909.11 C 1124.55 911.964 1123.82 973.222 1124.36 982.476 C 1127.06 986.373 1131.95 992.157 1130.5 997.005 C 1126.34 1000.31 1090.23 999.522 1084.07 995.1 C 1074.44 983.592 1073.93 965.845 1077.82 951.732 C 1083.57 930.835 1098.62 939.318 1107.5 934.778 C 1108.14 928.243 1098.92 926.728 1100.8 917.384 C 1104.53 912.268 1115.43 910.722 1121.89 909.11 z M 1099.54 986.435 C 1101.82 985.388 1104.69 984.687 1105.31 981.881 C 1107.44 972.244 1108.1 961.043 1105.07 951.545 C 1104.21 948.836 1100.46 948.689 1098.11 948.648 C 1090.93 958.183 1088.24 979.287 1099.54 986.435 z"/>
<path transform="translate(0,0)" fill="rgb(236,34,35)" d="M 233.199 987.641 C 239.998 986.119 245.011 983.268 243.987 975.224 C 240.331 967.669 222.626 966.162 213.96 960.286 C 201.55 951.871 201.85 934.087 209.118 922.103 C 217.175 908.818 236.821 916.883 250.428 914.229 L 250.926 914.128 C 253.288 923.134 258.239 938.248 252.283 945.945 C 251.708 944.804 251.653 944.949 250.881 944.208 C 241.486 935.178 238.47 922.25 222.179 928.204 C 220.172 931.923 219.835 933.141 221.171 936.889 C 228.019 943.61 242.712 944.567 252.283 945.945 C 252.195 949.58 259.898 960.433 262.525 965.535 C 258.42 993.15 248.472 1004.93 218.9 997.242 C 216.794 996.694 213.836 998.804 210.16 997.646 C 205.817 992.099 200.604 971.779 206.871 965.79 C 211.22 965.578 210.112 966.395 213.064 970.02 C 220.229 978.814 222.025 983.987 233.199 987.641 z"/>
<path transform="translate(0,0)" fill="rgb(236,34,35)" d="M 1043.03 936.403 C 1072.26 931.267 1062.27 963.372 1065.1 980.482 C 1066.1 986.577 1075.06 990.014 1069.9 997.595 C 1063.24 999.135 1041.93 998.448 1033.75 998.358 C 1026.73 998.41 1012.04 1001.09 1011.23 992.525 C 1012.62 988.219 1014.96 986.238 1018.06 982.941 C 1018.14 973.865 1018.64 962.528 1017.37 953.717 C 1017.03 951.336 1008.52 948.609 1013.45 940.512 C 1019.99 936.04 1033.43 937.619 1043.03 936.403 z M 1044.2 989.473 C 1048.87 982.755 1050.31 959.547 1046.03 950.426 C 1045.73 949.778 1043.29 949.543 1042.32 949.431 C 1039.15 951.453 1037.39 952.03 1036.53 956.43 C 1034.74 965.585 1034.9 975.238 1037.5 984.238 C 1038.46 987.576 1041.18 988.115 1044.2 989.473 z"/>
<path transform="translate(0,0)" fill="rgb(236,34,35)" d="M 1298.2 935.268 C 1304.11 934.997 1307.94 935.726 1313.73 936.593 C 1321.48 942.257 1325.9 948.788 1328.32 958.267 C 1330.8 968.01 1329.18 978.34 1323.85 986.863 C 1319.2 994.342 1315.48 997.263 1307.36 999.204 C 1275.23 1001.14 1269.59 969.302 1282.06 944.971 C 1285.03 939.174 1292 936.456 1298.2 935.268 z M 1305.12 985.808 C 1311.65 978.353 1312.63 958.257 1306.69 950.486 C 1304.18 948.548 1301.9 948.859 1298.75 948.807 C 1293.65 957.654 1289.2 986.103 1305.12 985.808 z"/>
<path transform="translate(0,0)" fill="rgb(236,34,35)" d="M 1547.9 935.3 C 1583.13 933.086 1587.6 975.484 1566.47 995.423 C 1564.09 997.67 1559.51 998.228 1556.21 998.721 C 1519.92 1003.8 1514.58 944.116 1547.9 935.3 z M 1556.68 985.43 C 1562.24 977.742 1562.96 957.362 1556.4 950.116 C 1553.58 948.409 1551.9 948.729 1548.67 948.815 C 1543.49 956.052 1541.56 976.902 1548.52 984.333 C 1550.42 986.362 1553.97 985.613 1556.68 985.43 z"/>
<path transform="translate(0,0)" fill="rgb(236,34,35)" d="M 1155.83 935.437 C 1187.26 933.098 1192.98 966.98 1179.87 989.575 C 1176.44 995.497 1170.61 997.682 1164.04 998.699 C 1128.26 1003.51 1122.38 941.977 1155.83 935.437 z M 1163.7 986.349 C 1169.5 980.187 1170.09 956.944 1164.4 950.047 C 1161.96 948.464 1160.18 948.835 1157.21 948.882 C 1150.95 958.031 1149.31 976.016 1157.42 984.61 C 1158.06 985.283 1162.58 986.136 1163.7 986.349 z"/>
<path transform="translate(0,0)" fill="rgb(2,6,2)" fill-opacity="0.160784" d="M 1161.8 953.237 C 1165.55 955.767 1164.18 967.511 1164.09 972.432 L 1162.99 971.619 C 1161.44 968.912 1161.84 957.153 1161.8 953.237 z"/>
<path transform="translate(0,0)" fill="rgb(2,6,2)" fill-opacity="0.364706" d="M 1155.28 960.383 L 1156.84 961.566 C 1158.1 965.163 1157.52 970.577 1157.36 974.545 L 1155.74 972.942 C 1154.32 968.985 1154.98 964.624 1155.28 960.383 z"/>
<path transform="translate(0,0)" fill="rgb(236,34,35)" d="M 716.81 981.354 C 717.242 972.711 718.299 961.743 717.116 953.368 C 716.73 950.641 707.234 947.578 710.487 941.451 C 717.308 936.73 725.607 936.825 733.859 936.067 C 734.011 950.472 733.835 967.66 735.065 982.071 C 735.346 985.36 737.395 986.209 739.723 987.754 L 740.178 998.23 C 690.141 998.735 688.271 1007.13 687.737 954.645 C 687.718 952.701 682.333 949.752 681.304 945.614 C 681.497 942.792 681.243 941.637 682.986 939.638 C 688.417 936.806 698.826 936.955 705.187 936.83 C 705.204 953.465 706.065 968.383 705.327 985.324 C 708.964 984.289 713.188 982.654 716.81 981.354 z"/>
<path transform="translate(0,0)" fill="rgb(236,34,35)" d="M 1709.38 955.866 C 1714.29 928.861 1727.16 935.586 1749.1 936.328 C 1749.21 941.742 1749.78 949.643 1748.39 954.646 C 1746.75 955.962 1745.52 956.709 1744.5 958.555 C 1747.85 962.506 1752.42 966.964 1753.2 971.902 L 1753.3 972.534 C 1754.33 978.72 1752.86 985.062 1749.2 990.157 C 1741.78 1000.47 1731.85 998.951 1720.44 998.659 C 1712.07 998.445 1711.55 996.259 1710.1 988.768 C 1709.22 985.156 1707.81 979.862 1709.37 976.628 C 1712.39 974.836 1711.97 975.497 1716.26 976.082 C 1722.69 979.21 1722.14 985.875 1728.42 987 C 1732.28 987.691 1737.86 986.163 1738.63 981.793 C 1735.36 976.781 1723.86 975.315 1717.6 973.764 C 1709.03 968.774 1709.67 965.117 1709.38 955.866 z M 1737.77 956.425 C 1737.62 949.129 1731.31 947.424 1725.19 947.792 C 1724.01 952.03 1723.75 950.672 1725.13 953.809 C 1727.92 955.931 1734.02 956.057 1737.77 956.425 z"/>
<path transform="translate(0,0)" fill="rgb(236,34,35)" d="M 980.692 935.35 C 984.332 935.204 989.612 935.346 992.937 936.9 C 1001.32 940.816 1010.54 956.72 1006.34 965.673 C 1001.69 969.132 983.393 967.081 976.372 966.763 C 977.316 973.351 977.487 979.517 982.167 984.345 C 990.075 986.676 992.279 977.984 1000.48 975.705 C 1003.86 975.93 1004.9 977.294 1007.55 979.49 C 1007.62 985.636 1000.22 994.552 994.23 996.898 C 984.647 1000.65 979.533 999.392 970.304 995.728 C 954.515 976.786 951.795 941.39 980.692 935.35 z M 986.183 954.748 L 988.411 954.959 C 989.562 951.78 988.812 950.93 986.091 949.055 C 984.323 948.922 982.462 948.743 980.701 948.713 C 978.609 951.67 977.576 951.982 977.761 955 C 980.849 956.066 982.929 955.346 986.183 954.748 z"/>
<path transform="translate(0,0)" fill="rgb(236,34,35)" d="M 346.501 980.602 C 343.239 988.689 337.454 997.296 328.529 998.942 C 299.534 1004.29 289.834 964.859 302.563 945.991 C 306.242 940.437 312.012 936.608 318.559 935.374 C 337.987 931.646 343.3 947.719 345.851 963.074 C 345.558 964.851 345.357 965.23 345.524 967.033 C 334.976 966.663 325.136 966.748 314.61 966.879 C 315.985 973.105 316.708 980.69 321.916 984.338 C 330.209 986.447 332.621 979.23 337.556 975.246 C 339.764 976.594 344.382 979.595 346.501 980.602 z"/>
<path transform="translate(0,0)" fill="rgb(236,34,35)" d="M 564.019 935.366 C 579.893 934.058 589.259 942.495 592.004 959.062 C 592.49 962.002 590.626 963.663 588.72 965.521 C 584.5 966.948 566.504 966.15 561.119 966.079 C 566.168 1003.17 579.151 975.44 587.992 974.709 L 590.507 976.994 C 591.154 1006.86 551.006 1006.71 545.059 978.847 C 541.393 961.668 544.582 940.148 564.019 935.366 z M 568.143 955.676 L 572.507 954.865 C 574.135 952.096 573.989 953.282 573.303 950.517 C 571.244 948.568 570.987 947.997 568.339 947.652 C 565.74 949.823 563.183 951.354 562.339 954.454 C 564.562 956.317 564.659 955.701 568.143 955.676 z"/>
<path transform="translate(0,0)" fill="rgb(236,34,35)" d="M 649.121 935.261 C 681.591 933.457 681.628 964.711 666.076 965.376 C 659.587 962.737 660.225 953.78 655.592 947.595 C 640.275 946.451 645.043 1002.53 665.375 978.15 C 667.773 976.808 669.253 976.595 671.861 975.964 C 675.4 976.835 674.265 976.037 676.235 978.827 C 679.891 1000.4 637.306 1009.21 631.261 982.636 C 627.012 963.96 627.711 941.943 649.121 935.261 z"/>
<path transform="translate(0,0)" fill="rgb(236,34,35)" d="M 1245.25 935.338 C 1261.2 935.333 1270.36 939.937 1268.54 958.303 C 1268.27 961.052 1266.56 962.997 1264.33 964.475 C 1251.96 967.935 1256.33 951.272 1247.91 946.789 C 1237.79 950.754 1237.89 985.181 1248.98 985.051 C 1251.5 985.024 1253.91 984.005 1255.68 982.216 C 1257.82 980.037 1258.65 979.43 1261.03 977.55 C 1262.72 976.889 1264.92 976.528 1266.74 976.158 C 1270.03 977.703 1269.01 976.671 1270.52 980.072 C 1270.55 988.534 1262.15 996.831 1254.27 998.547 C 1223.74 1005.19 1216.58 965.953 1228.65 945.767 C 1232.75 938.914 1237.81 936.828 1245.25 935.338 z"/>
<path transform="translate(0,0)" fill="rgb(236,34,35)" d="M 1046.84 338.305 C 1051.46 337.688 1056.12 337.515 1060.63 339.013 C 1066.24 340.914 1070.84 345.018 1073.36 350.381 C 1080.67 365.562 1073.11 379.893 1058.49 386.523 C 1045.85 388.423 1039.65 384.645 1031.93 374.832 C 1028.58 357.79 1029.03 345.275 1046.84 338.305 z"/>
<path transform="translate(0,0)" fill="rgb(242,250,250)" fill-opacity="0.0313725" d="M 1305.47 189.039 L 1307.52 188.951 L 1307.71 189.692 C 1308.22 191.698 1308.24 192.614 1309.76 194.016 L 1309.57 196.931 C 1313.61 200.43 1320.49 199.326 1326.12 199.128 C 1326.3 211.799 1326.19 226.87 1325.89 239.511 C 1325.22 269.002 1324.93 293.931 1362.38 292.773 C 1376.07 292.349 1406.67 284.684 1410.1 269.117 C 1410.96 267.559 1410.56 268.124 1412.11 267.024 L 1413.28 269.706 L 1415.48 269.038 L 1416.31 270.417 C 1415.37 276.851 1405.99 283.649 1400.44 285.436 C 1399.65 285.69 1393.06 292.676 1392.12 293.67 C 1388.06 294.677 1388.31 292.407 1387.67 292.618 C 1375.79 296.872 1361.28 297.792 1349.44 296.846 C 1325.67 294.949 1327.1 280.277 1319.56 262.875 C 1316.07 254.802 1321.57 260.341 1320.68 252.887 C 1320.51 251.488 1318.1 252.116 1318.09 246.774 C 1325.7 239.431 1318.49 219.985 1317.81 210.918 C 1318.73 209.394 1319.49 208.137 1320.09 207.147 C 1318.68 204.933 1318.59 203.911 1316.5 203.06 C 1310.22 205.703 1306.62 215.275 1300.99 217.795 C 1288.74 215.906 1295.71 219.788 1286.83 221.022 C 1285.54 220.046 1284.24 219.069 1282.95 218.093 C 1279.92 219.267 1280.03 219.724 1276.8 218.368 C 1272.97 216.763 1267.97 211.195 1264.18 211.625 C 1257.65 219.584 1266.78 239.455 1259.17 245.441 C 1258.42 233.658 1258.68 216.76 1260.38 205.222 C 1270.67 208.516 1282.72 214.736 1293.57 212.117 C 1306.03 209.107 1307.95 199.78 1305.47 189.039 z"/>
<path transform="translate(0,0)" fill="rgb(236,34,35)" d="M 512.029 937.281 C 521.656 936.214 540.287 934.151 545.014 944.983 C 543.778 955.747 532.472 953.816 524.906 952.836 C 524.847 960.865 524.398 968.752 525.784 976.689 C 527.43 986.121 530.065 985.873 532.829 993.391 L 533.145 994.263 C 529.194 999.409 501.953 1003.46 502.719 992.637 C 502.948 989.405 506.603 984.442 508.444 981.736 C 508.217 972.289 508.119 962.838 508.149 953.388 C 503.154 949.729 499.666 947.078 502.644 940.632 C 505.221 937.868 508.241 937.86 512.029 937.281 z"/>
<path transform="translate(0,0)" fill="rgb(236,34,35)" d="M 1510.04 937.55 C 1519.03 936.35 1527.6 937.192 1524.94 951.162 C 1523.6 958.222 1511.66 952.389 1508.24 953.548 C 1506.79 960.22 1507.57 975.546 1507.75 983.03 C 1511.86 986.914 1517.07 991.002 1513.59 996.785 C 1510.73 998.768 1506.83 998.289 1503.25 998.272 C 1495.88 998.478 1491.28 999.418 1484.73 996.087 C 1480.86 990.406 1486.27 987.306 1490.63 984.208 C 1491.58 975.344 1492.34 962.912 1489.85 954.311 C 1488.6 949.992 1481.32 946.863 1484.48 940.849 C 1491.34 936.164 1501.77 938.664 1510.04 937.55 z"/>
<path transform="translate(0,0)" fill="rgb(236,34,35)" d="M 1683.28 933.876 C 1686.92 933.236 1695.77 930.377 1697.26 930.971 L 1698.59 936.999 C 1699.45 948.67 1697.05 977.637 1701.11 985.395 L 1704.71 988.125 L 1706.85 994.111 L 1706.39 997.084 C 1701.39 999.695 1682.95 998.405 1676.31 998.143 C 1676.33 994.402 1675.87 992.434 1675.18 988.78 L 1678.97 987.022 C 1685.96 979.053 1682.31 957.987 1677.25 949.099 C 1674.61 944.452 1674.97 943.62 1674.97 938.209 C 1678.07 937.122 1681.2 936.385 1683.28 933.876 z"/>
<path transform="translate(0,0)" fill="rgb(242,250,250)" d="M 1683.28 933.876 C 1686.92 933.236 1695.77 930.377 1697.26 930.971 L 1698.59 936.999 C 1693.39 937.355 1678.61 939.38 1674.97 938.209 C 1678.07 937.122 1681.2 936.385 1683.28 933.876 z"/>
<path transform="translate(0,0)" fill="rgb(236,34,35)" d="M 284.813 930.38 C 285.512 932.029 286.861 934.94 287.371 936.522 C 286.362 949.518 287.008 968.004 287.035 981.503 C 289.529 985.218 295.978 993.384 291.508 997.228 C 283.662 998.474 270.864 1000.44 264.025 996.265 C 260.266 990.015 265.803 986.492 270.439 982.963 C 269.971 972.478 269.909 963.081 269.972 952.597 C 265.798 950.774 265.196 951.324 263.062 948.127 L 262.703 943.754 C 261.794 942.037 261.864 941.885 261.561 940.033 C 266.037 935.423 270.25 939.204 272.354 933.859 L 270.389 930.554 C 276.959 934.099 277.905 933.113 284.813 930.38 z"/>
<path transform="translate(0,0)" fill="rgb(242,250,250)" d="M 284.813 930.38 C 285.512 932.029 286.861 934.94 287.371 936.522 C 278.548 937.618 268.182 936.532 262.703 943.754 C 261.794 942.037 261.864 941.885 261.561 940.033 C 266.037 935.423 270.25 939.204 272.354 933.859 L 270.389 930.554 C 276.959 934.099 277.905 933.113 284.813 930.38 z"/>
<path transform="translate(0,0)" fill="rgb(236,34,35)" d="M 1683.28 933.876 C 1679.7 925.28 1677.14 911.716 1689.6 909.146 C 1701.13 911.689 1698.35 922.045 1697.26 930.971 C 1695.77 930.377 1686.92 933.236 1683.28 933.876 z"/>
<path transform="translate(0,0)" fill="rgb(236,34,35)" d="M 270.389 930.554 C 268.386 926.965 267.785 922.783 268.193 918.641 C 268.979 910.655 280.226 905.576 285 913.335 C 287.898 918.045 286.125 925.253 284.813 930.38 C 277.905 933.113 276.959 934.099 270.389 930.554 z"/>
<path transform="translate(0,0)" fill="rgb(238,95,80)" d="M 1585.9 843.719 C 1578.53 838.962 1561.27 826.663 1562.47 817.189 C 1564.59 817.177 1583.75 828.14 1589.99 830.676 L 1586.33 832.704 C 1585.61 837.338 1585.67 838.983 1585.9 843.719 z"/>
<path transform="translate(0,0)" fill="rgb(109,112,110)" fill-opacity="0.0235294" d="M 738.614 951.319 C 736.072 941.9 742.779 937.747 732.852 931.324 L 737.396 931.554 C 739.843 933.941 739.469 936.341 739.785 940.237 L 741.563 940.782 C 742.103 943.901 742.274 947.744 744.321 949.816 L 745.25 950.209 C 745.09 954.219 746.629 953.513 746.695 957.168 C 746.796 962.699 747.885 968.093 746.011 973.41 C 744.701 973.994 743.714 974.38 742.385 974.87 C 741.797 977.488 741.837 977.963 742.062 980.647 L 741.124 981.196 L 739.837 980.691 L 739.24 974.688 C 740.881 970.885 740.278 955.686 738.614 951.319 z"/>
<path transform="translate(0,0)" fill="url(#Gradient2)" d="M 1704.71 988.125 C 1707.09 981.876 1704.02 950.5 1705.95 947.475 L 1707.67 947.39 C 1707.84 950.512 1707.74 953.077 1709.38 955.866 C 1709.67 965.117 1709.03 968.774 1717.6 973.764 L 1716.26 976.082 C 1711.97 975.497 1712.39 974.836 1709.37 976.628 C 1707.81 979.862 1709.22 985.156 1710.1 988.768 L 1706.85 994.111 L 1704.71 988.125 z"/>
<path transform="translate(0,0)" fill="rgb(242,250,250)" fill-opacity="0.0117647" d="M 1717.6 973.764 C 1723.86 975.315 1735.36 976.781 1738.63 981.793 C 1737.86 986.163 1732.28 987.691 1728.42 987 C 1722.14 985.875 1722.69 979.21 1716.26 976.082 L 1717.6 973.764 z"/>
<path transform="translate(0,0)" fill="url(#Gradient1)" d="M 1803.98 945.823 C 1805.67 943.119 1804.74 943.787 1807.41 942.63 C 1810.36 943.532 1811.13 943.607 1813.08 945.921 C 1813.26 948.149 1813.21 949.145 1814.59 950.943 C 1813.58 956.718 1815.25 962.983 1813.74 967.232 C 1812.17 965.905 1805.54 949.287 1803.98 945.823 z"/>
<path transform="translate(0,0)" fill="rgb(242,250,250)" fill-opacity="0.403922" d="M 1261 744.6 C 1263.85 750.722 1267.41 762.583 1268.22 769.308 C 1265.63 767.707 1264.99 767.351 1262.11 766.394 L 1260.77 767.787 C 1260.06 766.433 1258.86 758.941 1258.5 756.931 L 1260.16 756.643 C 1261.38 753.574 1261.01 748.118 1261 744.6 z"/>
<path transform="translate(0,0)" fill="rgb(242,250,250)" fill-opacity="0.243137" d="M 1257.37 737.167 L 1261 744.6 C 1261.01 748.118 1261.38 753.574 1260.16 756.643 L 1258.5 756.931 C 1256.85 750.125 1253.96 744.105 1251.13 737.698 C 1252.81 739.437 1253.54 739.946 1255.51 741.378 L 1256.69 740.638 L 1257.37 737.167 z"/>
<path transform="translate(0,0)" fill="rgb(238,95,80)" d="M 1686.3 640.392 C 1687.57 645.873 1689.34 651.42 1687.19 656.766 L 1685.9 656.846 C 1683.39 653.998 1682.42 648.881 1681.38 645.068 L 1686.3 640.392 z"/>
<path transform="translate(0,0)" fill="rgb(2,6,2)" fill-opacity="0.266667" d="M 738.614 951.319 C 740.278 955.686 740.881 970.885 739.24 974.688 L 737.958 974.974 C 737.79 966.051 737.675 960.139 738.614 951.319 z"/>
<path transform="translate(0,0)" fill="rgb(232,224,208)" fill-opacity="0.988235" d="M 744.076 987.188 L 743.88 998.101 L 740.178 998.23 L 739.723 987.754 L 744.076 987.188 z"/>
<path transform="translate(0,0)" fill="rgb(2,6,2)" fill-opacity="0.121569" d="M 737.958 974.974 L 739.24 974.688 L 739.837 980.691 C 739.255 980.35 738.448 979.496 737.913 978.99 L 737.958 974.974 z"/>
</svg>